<?xml version="1.0" standalone="no"?> <!DOCTYPE svg PUBLIC "-//W3C//DTD SVG 1.0//EN" "http://www.w3.org/TR/2001/REC-SVG-20010904/DTD/svg10.dtd" > <svg xmlns="http://www.w3.org/2000/svg" width="100%" height="100%">
<defs >
<font id="neutratexttf-bold" horiz-adv-x="425" ><font-face
    font-family="Neutra Text TF"
    units-per-em="1000"
    panose-1="2 0 8 3 3 0 0 2 0 4"
    ascent="964"
    descent="-240"
    alphabetic="0" />
<missing-glyph horiz-adv-x="500" />
<glyph unicode=" " glyph-name="space" horiz-adv-x="200" />
<glyph unicode="!" glyph-name="exclam" horiz-adv-x="283" d="M142 -6Q107 -6 82 17T57 79Q57 116 82 139T142 163Q176 163 201 140T226 79Q226 41 201 18T142 -6ZM66 680H217L195 231H88L66 680Z" />
<glyph unicode="&quot;" glyph-name="quotedbl" horiz-adv-x="408" d="M36 680H180L165 433H51L36 680ZM227 680H372L357 433H243L227 680Z" />
<glyph unicode="#" glyph-name="numbersign" horiz-adv-x="520" d="M235 416L218 349H287L304 416H235ZM73 416V522H153L177 619H286L262 522H330L354 619H462L438 522H491V416H412L395 349H447V243H368L343 142H235L260 243H191L166 142H58L83 243H29V349H110L127
416H73Z" />
<glyph unicode="$" glyph-name="dollar" horiz-adv-x="520" d="M294 97Q325 101 336 112T347 141Q347 159 338 171T294 195V97V97ZM227 429Q200 425 190 415T180 391Q180 373 189 363T227 342V429V429ZM227 -7Q186 -4 155 7T101 34T60 71T31 115L130 171Q147 141
168 122T227 97V215Q180 229 148 245T96 282T67 327T58 382Q58 441 99 482T227 530V631H294V528Q345 520 379 497T439 440L352 374Q341 391 328 404T294 424V323Q376 298 424 256T472 148Q472 72 427 35T294 -8V-116H227V-7V-7Z" />
<glyph unicode="%" glyph-name="percent" horiz-adv-x="750" d="M591 88Q611 88 621 104T631 148Q631 176 621 192T591 208Q571 208 561 192T551 148Q551 120 561 104T591 88ZM160 314Q180 314 190 330T200 374Q200 402 190 418T160 434Q140 434 130 418T120 374Q120
346 130 330T160 314ZM591 -9Q560 -9 533 2T487 35T456 84T445 148Q445 182 456 211T486 261T533 293T591 305Q622 305 648 294T694 261T725 211T736 148Q736 113 725 85T695 35T649 3T591 -9ZM473 522H606L276 0H143L473 522ZM160 217Q129 217 102 228T56 261T25
310T14 374Q14 408 25 437T55 487T102 519T160 531Q191 531 217 520T263 487T294 437T305 374Q305 339 294 311T264 261T218 229T160 217Z" />
<glyph unicode="&amp;" glyph-name="ampersand" horiz-adv-x="695" d="M256 313Q212 289 197 262T182 202Q182 159 210 136T300 112Q354 112 399 136L256 313ZM312 448Q350 469 365 488T380 531Q380 554 366 567T328 580Q305 580 290 566T274 529Q274 503 285
486T310 451L312 448V448ZM485 234Q496 260 502 291T509 361H635Q635 292 618 235T568 131L674 0H509L475 42Q437 17 393 4T300 -9Q237 -9 188 6T105 47T54 110T36 191Q36 228 45 256T74 308T123 352T193 392Q167 427 157 459T146 527Q146 560 158 589T193 640T250
675T326 688Q366 688 399 677T454 645T489 595T502 530Q502 481 473 441T378 367L485 234Z" />
<glyph unicode="&apos;" glyph-name="quotesingle" horiz-adv-x="216" d="M36 680H180L165 433H51L36 680Z" />
<glyph unicode="(" glyph-name="parenleft" horiz-adv-x="300" d="M201 -134Q170 -100 140 -59T87 34T49 149T34 291Q34 369 48 432T86 547T140 640T201 716L284 657Q257 619 237 580T203 496T183 401T176 291Q176 232 182 182T202 87T236 3T284 -75L201 -134V-134Z" />
<glyph unicode=")" glyph-name="parenright" horiz-adv-x="300" d="M16 -75Q43 -37 63 3T97 87T117 181T124 291Q124 351 118 401T98 495T64 579T16 657L99 716Q130 682 160 641T213 548T251 433T266 291Q266 213 252 150T214 35T160 -58T99 -134L16 -75Z" />
<glyph unicode="*" glyph-name="asterisk" d="M182 471L100 389L42 489L155 520L42 551L100 651L182 569L153 680H271L242 569L324 651L383 551L267 520L383 489L324 389L242 471L271 360H153L182 471Z" />
<glyph unicode="+" glyph-name="plus" horiz-adv-x="520" d="M320 77H199V207H73V325H199V455H320V325H446V207H320V77Z" />
<glyph unicode="," glyph-name="comma" horiz-adv-x="200" d="M67 5Q45 15 32 33T19 77Q19 111 43 133T100 155Q132 155 156 133T180 75Q180 52 171 33T151 -6L93 -115H29L67 5Z" />
<glyph unicode="-" glyph-name="hyphen" horiz-adv-x="302" d="M36 302H266V182H36V302Z" />
<glyph unicode="." glyph-name="period" horiz-adv-x="200" d="M100 -6Q67 -6 43 17T19 75Q19 110 43 132T100 155Q132 155 156 133T180 75Q180 40 156 17T100 -6Z" />
<glyph unicode="/" glyph-name="slash" horiz-adv-x="404" d="M263 722H395L116 -128H-16L263 722Z" />
<glyph unicode="0" glyph-name="zero" horiz-adv-x="520" d="M260 111Q303 111 326 150T349 262Q349 335 326 373T260 411Q218 411 195 373T171 262Q171 189 194 150T260 111ZM260 -9Q210 -9 168 10T95 65T46 150T28 262Q28 324 45 373T94 458T168 512T260 531Q310
531 352 512T426 458T474 374T492 262Q492 200 475 150T426 65T353 11T260 -9Z" />
<glyph unicode="1" glyph-name="one" horiz-adv-x="520" d="M201 410H93V522H338V112H445V0H85V112H201V410Z" />
<glyph unicode="2" glyph-name="two" horiz-adv-x="520" d="M35 12L234 223Q255 245 271 262T297 293T313 322T318 352Q318 378 301 393T255 409Q220 409 200 386T168 329L42 363Q51 403 71 434T118 487T180 520T254 531Q306 531 344 517T408 479T446 425T458
361Q458 313 429 267T353 172L338 156Q330 148 321 140T301 125Q290 117 278 110Q293 111 306 112Q317 113 328 114T347 115H463V0H35V12Z" />
<glyph unicode="3" glyph-name="three" horiz-adv-x="520" d="M244 -103Q196 -103 159 -92T95 -61T48 -16T17 37L135 96Q151 55 177 36T244 17Q286 17 310 44T335 120Q335 170 304 195T226 221Q194 221 177 216T146 203L136 215L249 376Q254 384 260 391T271 404Q276
410 282 415Q273 413 263 412Q254 411 243 411T221 410H72V522H472V511L353 347Q344 334 333 323Q328 318 323 314Q353 308 381 292T430 251T465 192T478 117Q478 77 464 38T422 -32T349 -83T244 -103Z" />
<glyph unicode="4" glyph-name="four" horiz-adv-x="520" d="M301 195Q301 203 301 213T303 234Q304 245 306 257Q302 250 297 242Q292 235 287 228T274 212L202 132Q194 124 187 117T173 105Q166 99 159 94Q166 94 175 95Q183 96 191 96T211 97H301V195ZM497
101V0H431V-94H297V0H22V89L417 528H431V101H497Z" />
<glyph unicode="5" glyph-name="five" horiz-adv-x="520" d="M250 -103Q204 -103 167 -92T103 -63T56 -21T26 29L144 88Q155 59 179 38T248 17Q292 17 316 43T340 108Q340 150 314 175T235 201Q190 201 158 186T102 152L90 157V522H430V410H202V300Q212 306 232
310T275 315Q322 315 360 299T426 254T469 188T484 107Q484 65 470 27T427 -40T354 -86T250 -103Z" />
<glyph unicode="6" glyph-name="six" horiz-adv-x="520" d="M261 108Q302 108 323 133T345 193Q345 227 324 253T261 279Q221 279 200 253T178 193Q178 159 199 134T261 108ZM262 -9Q218 -9 179 4T109 44T62 106T44 190Q44 244 63 290T121 390L276 609H428L296
422Q288 411 277 401T254 382Q242 372 228 363Q244 371 258 376T293 381Q332 381 365 368T424 331T464 271T479 193Q479 146 462 109T416 45T347 5T262 -9Z" />
<glyph unicode="7" glyph-name="seven" horiz-adv-x="520" d="M294 410H44V522H479V511L216 -94H73L294 410Z" />
<glyph unicode="8" glyph-name="eight" horiz-adv-x="520" d="M260 110Q299 110 321 137T343 202Q343 240 321 267T260 295Q221 295 199 268T177 202Q177 164 199 137T260 110ZM261 398Q283 398 297 413T311 452Q311 476 297 491T261 506Q239 506 225 491T211
452Q211 429 225 414T261 398ZM149 350Q120 367 100 394T80 465Q80 493 92 520T127 569T184 604T261 618Q304 618 337 605T394 569T430 520T442 465Q442 422 422 395T373 350Q424 330 454 290T485 187Q485 143 467 107T418 46T347 6T260 -9Q214 -9 173 5T102 45T53
107T35 187Q35 250 66 290T149 350Z" />
<glyph unicode="9" glyph-name="nine" horiz-adv-x="520" d="M259 243Q299 243 320 269T342 329Q342 363 321 388T259 414Q218 414 197 389T175 329Q175 295 196 269T259 243ZM224 100Q232 111 243 121T266 140Q278 150 292 159Q276 151 262 146T227 141Q188 141
155 154T96 191T56 250T41 329Q41 376 58 413T104 477T173 517T258 531Q302 531 341 518T411 478T458 415T476 332Q476 278 457 232T399 132L239 -94H87L224 100Z" />
<glyph unicode=":" glyph-name="colon" horiz-adv-x="200" d="M100 -6Q67 -6 43 17T19 75Q19 110 43 132T100 155Q132 155 156 133T180 75Q180 40 156 17T100 -6ZM100 228Q67 228 43 250T19 309Q19 344 43 366T100 389Q132 389 156 367T180 309Q180 273 156 251T100 228Z" />
<glyph unicode=";" glyph-name="semicolon" horiz-adv-x="200" d="M67 5Q45 15 32 33T19 77Q19 111 43 133T100 155Q132 155 156 133T180 75Q180 52 171 33T151 -6L93 -115H29L67 5ZM100 228Q67 228 43 250T19 309Q19 344 43 366T100 389Q132 389 156 367T180
309Q180 273 156 251T100 228Z" />
<glyph unicode="&lt;" glyph-name="less" horiz-adv-x="520" d="M69 239V249L417 434V317L270 243L417 169V52L69 239Z" />
<glyph unicode="=" glyph-name="equal" horiz-adv-x="520" d="M70 230H450V115H70V230ZM70 394H450V279H70V394Z" />
<glyph unicode="&gt;" glyph-name="greater" horiz-adv-x="520" d="M103 169L250 243L103 317V434L451 247V237L103 52V169Z" />
<glyph unicode="?" glyph-name="question" horiz-adv-x="513" d="M236 -6Q201 -6 176 17T151 79Q151 116 176 139T236 163Q270 163 295 140T320 79Q320 41 295 18T236 -6ZM174 390H220Q281 390 306 418T332 485Q332 501 326 516T310 543T283 562T248 569Q206 569
183 552T142 504L34 567Q61 627 115 658T248 689Q302 689 343 672T412 627T455 561T470 485Q470 404 427 353T300 290V231H174V390Z" />
<glyph unicode="@" glyph-name="at" horiz-adv-x="925" d="M464 100Q494 100 513 126T533 190Q533 228 514 254T464 280Q429 280 409 256T389 190Q389 149 409 125T464 100ZM477 -207Q383 -207 303 -180T165 -100T73 27T39 197Q39 290 74 365T169 495T307 578T471
608Q564 608 640 582T771 506T856 389T886 236Q886 118 838 57T701 -5Q651 -5 616 11T562 72Q540 29 505 10T426 -9Q389 -9 357 5T302 46T265 109T251 190Q251 234 264 271T301 334T356 376T424 391Q466 391 491 375T532 331L530 381H660V156Q660 123 670 108T706
93Q738 93 755 126T772 234Q772 305 751 356T691 441T596 490T471 506Q402 506 346 484T248 422T185 325T162 198Q162 129 182 73T242 -22T340 -83T475 -105Q517 -105 557 -98T634 -77L676 -171Q629 -190 583 -198T477 -207Z" />
<glyph unicode="A" glyph-name="A" horiz-adv-x="664" d="M414 194L365 312Q357 330 350 351T337 391Q330 412 324 434Q317 412 311 391Q305 372 299 351T284 312L235 194H414ZM320 686H332L643 0H496L464 77H188L156 0H21L320 686Z" />
<glyph unicode="B" glyph-name="B" horiz-adv-x="610" d="M340 123Q383 123 408 149T433 217Q433 259 407 284T332 310H211V123H340ZM319 429Q353 429 373 446T394 493Q394 522 376 539T326 557H211V429H319ZM71 680H334Q382 680 418 666T480 628T519 572T532
504Q532 456 507 425T436 379Q506 362 540 318T574 210Q574 165 559 127T514 60T442 16T346 0H71V680Z" />
<glyph unicode="C" glyph-name="C" horiz-adv-x="715" d="M398 -9Q325 -9 261 17T150 90T76 201T48 340Q48 415 75 479T150 589T261 662T398 688Q491 688 557 655T670 549L563 473Q539 512 498 537T398 562Q352 562 314 545T249 499T207 429T192 340Q192 292 207
251T249 180T314 133T398 116Q464 116 504 144T573 216L682 141Q637 72 567 32T398 -9Z" />
<glyph unicode="D" glyph-name="D" horiz-adv-x="685" d="M273 123Q330 123 371 139T440 184T480 252T493 340Q493 388 480 427T440 496T372 541T273 557H211V123H273ZM71 680H280Q358 680 424 655T537 585T611 478T638 340Q638 265 612 203T538 95T425 25T280 0H71V680Z" />
<glyph unicode="E" glyph-name="E" horiz-adv-x="594" d="M71 680H521V557H211V341H484V221H211V123H535V0H71V680Z" />
<glyph unicode="F" glyph-name="F" horiz-adv-x="556" d="M71 680H509V557H211V332H482V207H211V0H71V680Z" />
<glyph unicode="G" glyph-name="G" horiz-adv-x="739" d="M417 -9Q334 -9 266 17T150 90T75 201T48 340Q48 415 73 479T144 589T254 662T395 688Q560 688 642 594L547 500Q534 513 520 524T488 544T448 557T395 562Q349 562 312 545T248 499T207 429T192 340Q192
292 207 251T251 180T321 133T417 116Q450 116 487 122T550 141V241H386V364H678V70Q663 58 638 44T580 19T505 -1T417 -9Z" />
<glyph unicode="H" glyph-name="H" horiz-adv-x="713" d="M71 680H211V332H502V680H642V0H502V207H211V0H71V680Z" />
<glyph unicode="I" glyph-name="I" horiz-adv-x="287" d="M74 680H214V0H74V680Z" />
<glyph unicode="J" glyph-name="J" horiz-adv-x="496" d="M223 -9Q181 -9 148 1T89 28T44 69T13 119L127 188Q143 159 162 138T217 116Q234 116 248 120T271 134T286 161T292 204V680H432V202Q432 148 417 108T374 42T308 4T223 -9Z" />
<glyph unicode="K" glyph-name="K" horiz-adv-x="649" d="M202 331Q214 358 229 387T260 437L440 680H599L371 372L627 0H458L277 267L211 188V0H71V680H211V445Q211 420 208 389T202 331Z" />
<glyph unicode="L" glyph-name="L" horiz-adv-x="561" d="M71 680H211V123H519V0H71V680Z" />
<glyph unicode="M" glyph-name="M" horiz-adv-x="830" d="M71 687H82L417 319L747 687H759V0H624V255Q624 272 624 293T626 332Q627 353 629 374Q616 356 604 339Q593 324 581 308T556 278L421 127H408L273 278Q261 292 248 308T224 339Q212 356 200 374Q201 353
202 332Q203 314 204 293T205 255V0H71V687Z" />
<glyph unicode="N" glyph-name="N" horiz-adv-x="701" d="M273 316Q260 328 246 344T220 374Q206 391 192 409Q194 387 197 365Q199 346 200 325T202 285V0H71V686H85L428 364Q440 352 454 336T480 306Q494 289 508 271Q505 293 503 315Q501 334 500 355T499 395V680H630V-6H616L273
316Z" />
<glyph unicode="O" glyph-name="O" horiz-adv-x="800" d="M400 116Q446 116 484 133T550 180T593 251T608 340Q608 388 593 429T551 500T485 547T400 564Q353 564 315 547T250 500T207 429T192 340Q192 292 207 251T249 180T315 133T400 116ZM400 -9Q326 -9 262
17T151 90T76 201T48 340Q48 415 75 479T150 589T262 662T400 689Q473 689 537 663T649 590T724 479T752 340Q752 265 725 201T650 91T538 18T400 -9Z" />
<glyph unicode="P" glyph-name="P" horiz-adv-x="601" d="M255 278Q341 278 380 312T419 417Q419 488 380 522T255 557H211V278H255ZM71 680H259Q330 680 386 662T482 610T542 527T563 417Q563 355 542 307T482 225T387 173T259 155H211V0H71V680Z" />
<glyph unicode="Q" glyph-name="Q" horiz-adv-x="800" d="M388 219L482 296L568 197Q608 254 608 340Q608 388 593 429T551 500T485 547T400 564Q353 564 315 547T250 500T207 429T192 340Q192 292 207 251T249 180T315 133T400 116Q439 116 469 126L388 219ZM751
-13L658 -90L557 26Q522 9 483 0T400 -9Q326 -9 262 17T151 90T76 201T48 340Q48 415 75 479T150 589T262 662T400 689Q473 689 537 663T649 590T724 479T752 340Q752 267 727 205T656 96L751 -13Z" />
<glyph unicode="R" glyph-name="R" horiz-adv-x="614" d="M255 291Q341 291 380 321T419 423Q419 495 380 526T255 557H211V291H255ZM573 0H411L299 172Q279 169 259 169H211V0H71V680H259Q402 680 482 614T563 423Q563 343 529 292T432 212L573 0Z" />
<glyph unicode="S" glyph-name="S" horiz-adv-x="537" d="M267 -9Q218 -9 178 2T106 32T51 77T12 134L126 200Q149 163 180 139T264 115Q308 115 333 134T359 184Q359 220 332 238T257 277L222 292Q184 308 153 327T100 371T66 428T54 503Q54 542 68 576T109 635T174
674T259 688Q326 688 374 663T458 576L349 506Q331 538 310 552T259 566Q228 566 210 549T192 506Q192 474 212 458T278 421L313 406Q358 387 392 367T450 321T486 263T499 186Q499 139 482 103T433 41T360 4T267 -9Z" />
<glyph unicode="T" glyph-name="T" horiz-adv-x="592" d="M226 557H32V680H560V557H366V0H226V557Z" />
<glyph unicode="U" glyph-name="U" horiz-adv-x="686" d="M344 -9Q285 -9 235 6T147 54T89 133T68 246V680H208V254Q208 179 241 148T344 117Q413 117 445 148T478 254V680H618V246Q618 181 597 134T539 54T452 7T344 -9Z" />
<glyph unicode="V" glyph-name="V" horiz-adv-x="664" d="M21 680H171L288 418Q298 396 307 369T324 319Q333 292 341 264Q348 292 357 319Q365 342 374 368T393 418L507 680H643L345 -6H331L21 680Z" />
<glyph unicode="W" glyph-name="W" horiz-adv-x="958" d="M22 680H170L269 407Q275 389 281 368T293 328Q299 306 305 284Q311 306 318 328Q324 347 331 368T347 407L478 686H492L625 407Q633 390 640 369T654 328Q661 306 667 284Q673 306 679 328Q684 347 690
368T703 407L801 680H937L690 -6H676L523 322Q516 336 509 353T497 387Q491 405 485 423Q478 405 472 387Q466 371 460 354T446 322L287 -6H273L22 680Z" />
<glyph unicode="X" glyph-name="X" horiz-adv-x="660" d="M249 374L64 680H223L292 563Q300 550 307 534T322 504Q330 487 337 470Q343 486 349 503Q354 517 361 533T376 563L442 680H591L409 373L635 0H475L368 181Q360 194 352 210T337 242Q329 260 321 277Q315
259 308 242Q302 227 295 211T279 181L174 0H27L249 374Z" />
<glyph unicode="Y" glyph-name="Y" horiz-adv-x="682" d="M279 216L21 680H176L296 461Q306 443 315 421T333 378Q342 355 351 332Q359 355 368 378Q376 398 385 420T404 461L519 680H662L420 226V0H279V216Z" />
<glyph unicode="Z" glyph-name="Z" horiz-adv-x="590" d="M27 12L339 557H82V680H555V668L244 123H538V0H27V12Z" />
<glyph unicode="[" glyph-name="bracketleft" horiz-adv-x="300" d="M41 722H278V608H176V-14H278V-128H41V722Z" />
<glyph unicode="\" glyph-name="backslash" horiz-adv-x="404" d="M9 722H141L420 -128H288L9 722Z" />
<glyph unicode="]" glyph-name="bracketright" horiz-adv-x="300" d="M21 -14H123V608H21V722H258V-128H21V-14Z" />
<glyph unicode="^" glyph-name="asciicircum" horiz-adv-x="439" d="M214 687H225L385 447H277L219 518L162 447H54L214 687Z" />
<glyph unicode="_" glyph-name="underscore" horiz-adv-x="283" d="M-2 -8H285V-128H-2V-8Z" />
<glyph unicode="`" glyph-name="grave" horiz-adv-x="500" d="M94 688H248L300 500H198L94 688Z" />
<glyph unicode="a" glyph-name="a" horiz-adv-x="488" d="M212 173Q186 173 175 163T163 134Q163 96 221 96Q263 96 283 112T304 156V173H212ZM304 253Q301 324 233 324Q195 324 173 311T136 285L61 365Q76 380 92 392T131 414T180 429T246 435Q287 435 322 424T383
389T423 329T438 242V0H304L307 59Q283 22 254 7T181 -9Q152 -9 125 -2T77 21T44 62T31 125Q31 193 78 223T205 253H304V253Z" />
<glyph unicode="b" glyph-name="b" horiz-adv-x="551" d="M280 109Q323 109 348 136T373 214Q373 262 348 289T280 316Q236 316 210 289T184 214Q184 163 210 136T280 109ZM319 -9Q270 -9 237 9T185 62L188 0H53V722H188V366Q209 398 241 416T322 435Q361 435
395 419T456 374T497 304T512 214Q512 165 497 124T455 54T393 8T319 -9Z" />
<glyph unicode="c" glyph-name="c" horiz-adv-x="477" d="M271 -9Q221 -9 179 7T105 53T56 124T38 214Q38 262 55 303T104 373T178 418T271 435Q335 435 376 413T450 350L354 272Q342 292 320 304T271 317Q225 317 201 288T176 214Q176 167 200 138T271 108Q303
108 322 120T357 148L448 68Q416 33 376 12T271 -9Z" />
<glyph unicode="d" glyph-name="d" horiz-adv-x="551" d="M271 109Q315 109 341 136T367 214Q367 262 341 289T271 316Q228 316 203 289T178 214Q178 163 203 136T271 109ZM232 -9Q193 -9 158 7T97 53T55 124T39 214Q39 263 54 303T96 373T156 419T230 435Q281
435 312 417T363 366V722H498V0H363L366 62Q348 28 315 10T232 -9Z" />
<glyph unicode="e" glyph-name="e" horiz-adv-x="538" d="M363 250Q358 285 336 305T274 325Q234 325 208 307T174 250H363ZM176 172Q186 139 213 121T286 103Q323 103 350 114T393 137L470 54Q439 27 397 9T288 -9Q231 -9 185 7T106 53T56 124T38 214Q38 262
56 303T106 373T180 418T273 435Q330 435 374 415T447 360T489 276T499 172H176V172Z" />
<glyph unicode="f" glyph-name="f" horiz-adv-x="382" d="M102 314H31V426H102V569Q102 735 259 735Q304 735 335 722T390 681L317 591Q309 600 300 607T274 614Q257 614 247 604T237 571V426H352V314H237V0H102V314Z" />
<glyph unicode="g" glyph-name="g" horiz-adv-x="492" d="M157 -32Q145 -46 145 -65Q145 -91 166 -106T243 -121Q302 -121 321 -108T340 -74Q340 -56 326 -49T269 -39L157 -32V-32ZM243 219Q274 219 290 235T306 279Q306 305 290 320T243 336Q212 336 196 321T180
279Q180 252 196 236T243 219ZM472 427V331H409Q424 308 424 279Q424 245 412 216T376 166T319 133T245 121Q192 121 158 138Q147 129 147 112Q147 97 157 88T191 78L296 73Q384 68 431 34T478 -64Q478 -98 465 -127T424 -177T351 -210T243 -222Q128 -222 71 -183T14
-82Q14 -47 35 -25T92 12Q41 40 41 98Q41 156 100 182Q62 223 62 279Q62 313 75 341T113 391T170 423T245 435Q278 435 308 427H472Z" />
<glyph unicode="h" glyph-name="h" horiz-adv-x="530" d="M53 722H188V359Q208 396 241 415T320 435Q390 435 435 386T480 246V0H345V237Q345 273 328 292T274 312Q233 312 211 291T188 228V0H53V722Z" />
<glyph unicode="i" glyph-name="i" horiz-adv-x="251" d="M58 426H193V0H58V426ZM126 497Q91 497 66 520T40 582Q40 619 65 642T126 666Q161 666 186 643T211 582Q211 544 186 521T126 497Z" />
<glyph unicode="j" glyph-name="j" horiz-adv-x="250" d="M40 -222Q2 -222 -28 -206T-73 -171L-6 -91Q12 -107 27 -107Q58 -107 58 -73V426H193V-68Q193 -142 154 -182T40 -222ZM126 497Q91 497 66 520T40 582Q40 619 65 642T126 666Q161 666 186 643T211 582Q211
544 186 521T126 497Z" />
<glyph unicode="k" glyph-name="k" horiz-adv-x="494" d="M188 0H53V722H188V354Q188 330 186 306T181 262L321 426H471L320 252L487 0H330L224 161L188 123V0Z" />
<glyph unicode="l" glyph-name="l" horiz-adv-x="246" d="M56 722H190V0H56V722Z" />
<glyph unicode="m" glyph-name="m" horiz-adv-x="790" d="M53 426H188L185 360Q208 399 238 417T306 435Q388 435 426 362Q452 395 487 415T571 435Q652 435 696 385T740 247V0H606V235Q606 273 592 292T539 312Q500 312 482 292T464 228V0H330V235Q330 273 316
292T264 312Q225 312 207 292T188 228V0H53V426Z" />
<glyph unicode="n" glyph-name="n" horiz-adv-x="530" d="M53 426H188L185 356Q205 394 240 414T320 435Q390 435 435 386T480 246V0H345V237Q345 273 328 292T274 312Q233 312 211 291T188 228V0H53V426Z" />
<glyph unicode="o" glyph-name="o" horiz-adv-x="545" d="M273 105Q318 105 343 134T369 212Q369 260 344 289T273 319Q228 319 202 290T176 212Q176 164 202 135T273 105ZM273 -9Q223 -9 181 7T106 53T56 123T38 212Q38 261 56 302T106 372T180 418T273 435Q322
435 365 419T439 373T489 302T507 212Q507 164 489 123T440 53T365 8T273 -9Z" />
<glyph unicode="p" glyph-name="p" horiz-adv-x="551" d="M280 109Q323 109 348 136T373 214Q373 262 348 289T280 316Q236 316 210 289T184 214Q184 163 210 136T280 109ZM53 426H188L185 360Q205 395 238 415T322 435Q361 435 395 419T456 374T497 304T512 214Q512
165 497 124T455 54T393 8T319 -9Q270 -9 238 9T188 57V-212H53V426Z" />
<glyph unicode="q" glyph-name="q" horiz-adv-x="552" d="M271 109Q315 109 341 136T367 214Q367 262 341 289T271 316Q228 316 203 289T178 214Q178 163 203 136T271 109ZM364 57Q347 28 314 10T232 -9Q193 -9 158 7T97 53T55 124T39 214Q39 263 54 303T96 373T156
419T230 435Q281 435 314 415T367 360L364 426H499V-212H364V57Z" />
<glyph unicode="r" glyph-name="r" horiz-adv-x="392" d="M53 426H188L186 349Q198 375 212 392T243 418T277 431T311 435Q332 435 348 430T377 418L334 295Q321 301 309 304T282 308Q236 308 212 283T188 189V0H53V426Z" />
<glyph unicode="s" glyph-name="s" horiz-adv-x="421" d="M216 -9Q142 -9 96 15T22 72L101 142Q123 121 150 109T207 97Q240 97 252 103T265 123Q265 132 260 137T243 145T213 153T169 164Q147 170 125 179T86 204T57 243T46 300Q46 336 59 361T94 403T147 427T211
435Q264 435 302 419T366 376L294 299Q279 312 258 321T212 331Q166 331 166 306Q166 288 186 282T251 266Q274 261 299 252T344 228T378 190T391 133Q391 104 383 78T354 33T300 2T216 -9Z" />
<glyph unicode="t" glyph-name="t" horiz-adv-x="382" d="M242 -11Q210 -11 183 -3T136 26T105 79T94 160V314H31V426H94V648H228V426H337V314H228V156Q228 124 237 114T263 104Q280 104 291 110T310 122L361 28Q345 15 317 2T242 -11Z" />
<glyph unicode="u" glyph-name="u" horiz-adv-x="528" d="M209 -9Q139 -9 95 40T50 180V426H185V189Q185 153 202 133T256 113Q297 113 318 135T340 198V426H475V0H340L343 70Q323 32 289 12T209 -9Z" />
<glyph unicode="v" glyph-name="v" horiz-adv-x="490" d="M9 426H158L218 299Q226 282 232 263T243 226Q248 206 253 186Q257 206 262 226Q267 243 272 262T286 299L344 426H481L253 -9H240L9 426Z" />
<glyph unicode="w" glyph-name="w" horiz-adv-x="689" d="M9 426H158L207 305Q212 291 217 275T228 244Q233 227 238 210Q243 227 248 244Q253 258 259 274T273 305L343 437H353L427 305Q434 292 441 276T453 245Q459 227 464 210Q469 227 474 244Q479 258 484
274T495 305L545 426H680L481 -11H469L377 160Q370 171 365 186T356 214Q352 229 347 245Q342 229 337 214Q332 200 327 186T315 160L217 -11H206L9 426Z" />
<glyph unicode="x" glyph-name="x" horiz-adv-x="511" d="M180 223L37 426H196L231 373Q236 364 242 353T253 331Q258 319 263 307Q268 319 273 331Q278 342 283 353T294 373L328 426H472L331 234L495 0H335L286 73Q279 83 272 96T260 121Q253 135 247 149Q240
135 234 121Q228 109 222 96T208 73L160 0H16L180 223Z" />
<glyph unicode="y" glyph-name="y" horiz-adv-x="490" d="M178 40L9 426H158L219 262Q224 247 229 228T240 192Q245 172 249 152Q253 172 257 192Q261 209 266 228T278 262L344 426H481L202 -212H67L178 40Z" />
<glyph unicode="z" glyph-name="z" horiz-adv-x="442" d="M23 11L208 317H46V426H414V415L225 109H398V0H23V11Z" />
<glyph unicode="{" glyph-name="braceleft" horiz-adv-x="300" d="M232 -128Q202 -128 174 -122T123 -99T88 -54T74 16V152Q74 187 60 202T17 218H-1V332H17Q46 332 60 347T74 398V578Q74 620 87 648T123 692T173 715T232 722H279V608H244Q223 608 217 600T210
574V381Q210 327 184 305T117 275Q158 268 184 246T210 169V20Q210 3 216 -5T244 -14H279V-128H232V-128Z" />
<glyph unicode="|" glyph-name="bar" horiz-adv-x="278" d="M74 722H204V-128H74V722Z" />
<glyph unicode="}" glyph-name="braceright" horiz-adv-x="300" d="M21 -14H56Q77 -14 83 -6T90 20V169Q90 223 116 245T183 275Q142 282 116 304T90 381V574Q90 591 84 599T56 608H21V722H68Q98 722 126 716T177 693T212 648T226 578V398Q226 363 240 348T283
332H301V218H283Q254 218 240 203T226 152V16Q226 -26 213 -54T177 -98T127 -121T68 -128H21V-14Z" />
<glyph unicode="~" glyph-name="asciitilde" horiz-adv-x="408" d="M33 214Q37 285 68 319T144 354Q164 354 179 348T207 334Q224 323 234 316T255 309Q269 309 275 320T284 354L375 345Q371 274 340 240T264 205Q244 205 229 211T201 225Q184 236 174 243T153
250Q128 250 124 205L33 214Z" />
</font>
</defs>
</svg>
